<?xml version="1.0" encoding="UTF-8" standalone="no"?>
<!-- Created with Inkscape (http://www.inkscape.org/) -->

<svg
   version="1.1"
   id="svg1"
   width="385.09332"
   height="67.546669"
   viewBox="0 0 385.09332 67.546669"
   sodipodi:docname="Almas_Typogramme_Blanc.eps"
   xmlns:inkscape="http://www.inkscape.org/namespaces/inkscape"
   xmlns:sodipodi="http://sodipodi.sourceforge.net/DTD/sodipodi-0.dtd"
   xmlns="http://www.w3.org/2000/svg"
   xmlns:svg="http://www.w3.org/2000/svg">
  <defs
     id="defs1" />
  <sodipodi:namedview
     id="namedview1"
     pagecolor="#000000"
     bordercolor="#000000"
     borderopacity="0.25"
     inkscape:showpageshadow="2"
     inkscape:pageopacity="0.0"
     inkscape:pagecheckerboard="0"
     inkscape:deskcolor="#d1d1d1">
    <inkscape:page
       x="0"
       y="0"
       inkscape:label="1"
       id="page1"
       width="385.09332"
       height="67.546669"
       margin="0"
       bleed="0" />
  </sodipodi:namedview>
  <g
     id="g1"
     inkscape:groupmode="layer"
     inkscape:label="1">
    <g
       id="group-R5">
      <path
         id="path2"
         d="m 2700.7,326.184 -0.02,0.007 c -66,29.082 -128.34,56.547 -128.34,97.688 0,27.453 26.84,47.387 63.81,47.387 5.08,0 10.34,-0.25 15.33,-0.625 28.12,-4.055 81.66,-25.02 124.42,-119.825 0.91,-1.976 2.99,-3.164 5.12,-2.914 2.24,0.254 55.27,6.75 87.54,58.145 1.2,1.914 0.97,4.387 -0.55,6.047 -54.54,59.176 -135.89,94.508 -217.63,94.508 -104.04,0 -209.36,-48.184 -209.36,-140.278 0,-87.047 95.18,-131.75 179.17,-171.191 68.1,-31.969 132.42,-62.168 132.42,-107.008 0,-31.2109 -29.93,-52.1836 -74.48,-52.1836 -4.7,0 -10.27,0.3789 -16.49,1.1055 -38.78,5.1054 -108.78,32.039 -141.84,155.0271 -0.63,2.356 -2.85,3.961 -5.3,3.68 -2.65,-0.25 -65.33,-6.715 -97.63,-58.152 -0.97,-1.547 -1.02,-3.5 -0.13,-5.098 C 2461.66,52.0117 2559.8,0 2666.75,0 c 110.06,0 221.46,51.4844 221.46,149.883 0,93.656 -99.62,137.558 -187.51,176.301"
         style="fill:#000000;fill-opacity:1;fill-rule:nonzero;stroke:none"
         transform="matrix(0.13333333,0,0,-0.13333333,0,67.546667)" />
      <path
         id="path3"
         d="M 1015.14,86.0742 C 971.895,68.2969 931.016,56.6172 874.043,45.7578 850.578,41.2852 825.148,38.125 796.457,36.1094 V 425.395 c 0.02,0.175 0.027,0.359 0.027,0.543 0,42.48 9.094,66.535 9.18,66.773 0.598,1.539 0.402,3.269 -0.535,4.633 -0.93,1.359 -2.473,2.172 -4.121,2.172 H 629.289 c -1.652,0 -3.184,-0.813 -4.121,-2.172 -0.93,-1.356 -1.133,-3.09 -0.547,-4.629 0.078,-0.192 7.344,-19.438 8.875,-53.516 L 633.203,64.5352 c -2,-30.8672 -8.515,-48.1289 -8.582,-48.3008 -0.586,-1.5313 -0.383,-3.2656 0.547,-4.6211 0.937,-1.3594 2.469,-2.1758 4.121,-2.1758 h 387.371 c 2.75,0 4.98,2.2227 5,4.9727 l 0.38,67.0117 c 0.01,1.6758 -0.82,3.2422 -2.21,4.1758 -1.37,0.9296 -3.12,1.1132 -4.69,0.4765"
         style="fill:#000000;fill-opacity:1;fill-rule:nonzero;stroke:none"
         transform="matrix(0.13333333,0,0,-0.13333333,0,67.546667)" />
      <path
         id="path4"
         d="M 275.344,240.746 H 131.086 c 24.883,67.598 57.383,155.117 70.937,191.578 1.727,-3.945 3.555,-8.121 5.477,-12.535 z M 511.152,54.1016 361.652,453.609 c -9.121,27.02 -8.898,40.375 -8.886,40.485 0.039,1.347 -0.461,2.656 -1.387,3.633 -0.93,0.968 -2.219,1.527 -3.566,1.543 l -5.43,0.05 c -0.438,0.129 -0.899,0.196 -1.375,0.196 H 178.801 c -1.594,0 -3.098,-0.762 -4.035,-2.051 -0.938,-1.281 -1.211,-2.942 -0.731,-4.465 0.078,-0.25 7.91,-25.637 0.086,-55.309 L 62.043,139.465 C 53.332,116.66 23.2227,40.4453 1.35938,17.1797 -0.0078125,15.7266 -0.378906,13.5977 0.410156,11.7734 1.20313,9.94141 3.00781,8.75391 5,8.75391 h 75.4883 c 1.5625,0 3.0469,0.73437 3.9844,1.98439 0.9492,1.25 1.25,2.8711 0.832,4.3789 -10.4102,36.7305 -4.0742,87.8088 18.8363,151.8208 3.918,10.964 9.902,27.402 17.062,46.902 h 164.344 l 28.242,-74.543 c 7.227,-21.621 30.313,-94.4923 24.191,-124.547 -0.292,-1.4687 0.079,-2.9961 1.024,-4.1602 0.957,-1.16011 2.375,-1.83589 3.879,-1.83589 h 178.035 c 0.383,0 0.754,0.05078 1.113,0.13672 l 6.633,-0.13672 c 1.992,0.03906 3.895,1.17187 4.688,3.05469 0.8,1.875 0.371,4.0625 -1.075,5.5 -0.097,0.0977 -9.972,10.1445 -21.125,36.793"
         style="fill:#000000;fill-opacity:1;fill-rule:nonzero;stroke:none"
         transform="matrix(0.13333333,0,0,-0.13333333,0,67.546667)" />
      <path
         id="path5"
         d="m 2102.82,240.746 h -144.26 c 24.88,67.594 57.38,155.113 70.93,191.578 1.74,-3.945 3.57,-8.121 5.49,-12.535 z M 2338.62,54.1211 2189.13,453.59 c -9.13,27.035 -8.9,40.394 -8.9,40.504 0.04,1.347 -0.45,2.656 -1.38,3.633 -0.93,0.968 -2.22,1.527 -3.57,1.543 l -5.43,0.05 c -0.44,0.129 -0.89,0.196 -1.37,0.196 h -162.2 c -1.59,0 -3.09,-0.762 -4.03,-2.051 -0.94,-1.281 -1.21,-2.942 -0.74,-4.461 0.08,-0.254 7.9,-25.637 0.09,-55.309 L 1889.5,139.434 c -8.7,-22.793 -38.79,-98.9652 -60.67,-122.2543 -1.37,-1.4531 -1.74,-3.582 -0.95,-5.4063 0.79,-1.83199 2.6,-3.01949 4.59,-3.01949 h 75.49 c 1.56,0 3.05,0.73437 3.98,1.98439 0.95,1.25 1.25,2.8711 0.83,4.3789 -10.41,36.7305 -4.07,87.8088 18.84,151.8208 3.92,10.964 9.91,27.402 17.07,46.902 h 164.35 l 28.24,-74.543 c 7.22,-21.633 30.29,-94.5314 24.19,-124.547 -0.29,-1.4687 0.08,-2.9961 1.03,-4.1602 0.95,-1.16011 2.37,-1.83589 3.87,-1.83589 h 178.03 c 0.38,0 0.75,0.05078 1.11,0.13672 l 6.63,-0.13672 c 1.97,0.03906 3.9,1.17187 4.69,3.04689 0.8,1.8828 0.37,4.0625 -1.07,5.5078 -0.1,0.0977 -9.97,10.1484 -21.13,36.8125"
         style="fill:#000000;fill-opacity:1;fill-rule:nonzero;stroke:none"
         transform="matrix(0.13333333,0,0,-0.13333333,0,67.546667)" />
      <path
         id="path6"
         d="m 1745.8,425.938 c 0,42.48 9.1,66.535 9.19,66.773 0.6,1.539 0.4,3.269 -0.54,4.629 -0.92,1.363 -2.47,2.176 -4.12,2.176 h -22.82 c -0.19,0 -0.37,-0.008 -0.55,-0.028 l -129.18,-0.308 c -2.76,-0.004 -4.99,-2.242 -4.99,-5 v -2.524 L 1450.65,85.7188 1310,433.73 c -16.86,40.625 -16.34,60.133 -16.34,60.297 0.07,1.36 -0.42,2.684 -1.35,3.672 -0.93,0.989 -2.23,1.555 -3.59,1.571 l -7.36,0.07 c -0.42,0.113 -0.86,0.176 -1.32,0.176 h -152.77 c -1.65,0 -3.19,-0.813 -4.12,-2.172 -0.93,-1.356 -1.14,-3.09 -0.55,-4.629 0.09,-0.219 8.58,-22.777 9.14,-62.598 V 155.902 c 0,-1.062 -0.28,-106.6793 -24.08,-138.4645 -1.14,-1.5195 -1.32,-3.5469 -0.47,-5.2344 0.85,-1.6953 2.58,-2.7656 4.47,-2.7656 h 69.54 c 1.91,0 3.64,1.082 4.48,2.7891 0.84,1.7031 0.65,3.7422 -0.5,5.25 -21.01,27.4414 -23.7,104.3824 -24.03,127.2654 l -0.05,9.371 0.02,1.715 c 0,0.219 -0.01,0.438 -0.03,0.649 l -1.46,274.914 151.31,-363.0121 c 13.97,-35.8437 13.68,-53.3633 13.67,-53.5117 -0.05,-1.3477 0.45,-2.6602 1.39,-3.6328 0.92,-0.9766 2.21,-1.53127 3.56,-1.5469 l 7.98,-0.07812 c 0.41,-0.11329 0.85,-0.17188 1.3,-0.17188 h 120.5 c 2.28,0 4.27,1.5508 4.84,3.7617 l 15.08,59.0117 113.49,336.0661 -0.29,-327.4176 c -0.2,-41.5313 -9.07,-65.0547 -9.17,-65.2891 -0.59,-1.5625 -0.38,-3.3203 0.59,-4.6875 0.93,-1.32811 2.46,-2.11327 4.08,-2.11327 0.05,0 0.1,0 0.15,0 l 23.16,0.66797 h 139.06 c 1.65,0 3.2,0.8164 4.12,2.1797 0.94,1.3555 1.14,3.0898 0.54,4.6289 -0.09,0.2383 -9.19,24.293 -9.19,66.7734 0,0.3321 -0.03,0.6524 -0.1,0.961 V 424.953 c 0.07,0.317 0.1,0.649 0.1,0.985"
         style="fill:#000000;fill-opacity:1;fill-rule:nonzero;stroke:none"
         transform="matrix(0.13333333,0,0,-0.13333333,0,67.546667)" />
    </g>
  </g>
</svg>
